<?xml version="1.0" encoding="utf-8"?>
<!-- Generator: Adobe Illustrator 16.0.0, SVG Export Plug-In . SVG Version: 6.00 Build 0)  -->
<!DOCTYPE svg PUBLIC "-//W3C//DTD SVG 1.1//EN" "http://www.w3.org/Graphics/SVG/1.1/DTD/svg11.dtd">
<svg version="1.1" id="Layer_1" xmlns="http://www.w3.org/2000/svg" xmlns:xlink="http://www.w3.org/1999/xlink" x="0px" y="0px"
	 width="300px" height="300px" viewBox="0 0 300 300" enable-background="new 0 0 300 300" xml:space="preserve">
<rect fill="#D8DCDB" width="300" height="300"/>
<g>
	<path fill="#6C6C6D" d="M265.447,299.222c0-21.041-6.147-30.409-21.662-39.959c-12.149-7.447-41.569-17.235-62.244-29.348
		c-2.799-2.817-3.842-7.044-4.099-11.746c43.069-5.306,50.534-24.114,50.534-24.114c-21.406-22.614-5.379-31.652-3.073-50.754
		c3.257-26.566-2.342-49.18-21.443-67.696c-12.186-11.783-31.396-20.346-50.132-19.925c-14.198,0.33-29.091,2.909-33.006,14.948
		c-28.761,7.684-42.191,36.227-40.947,60.707c1.574,31.085,20.126,40.105-1.281,62.72c0,0,7.868,18.644,50.534,24.041
		c-0.219,4.739-1.281,9.002-4.098,11.819c-20.675,12.112-50.059,21.9-62.244,29.348C55.725,263.297,42.3,274.955,41.664,300h223.783
		V299.222z"/>
</g>
</svg>
